<?xml version="1.0" encoding="utf-8"?>
<!-- Generator: Adobe Illustrator 25.4.1, SVG Export Plug-In . SVG Version: 6.00 Build 0)  -->
<svg version="1.0" id="katman_1" xmlns="http://www.w3.org/2000/svg" xmlns:xlink="http://www.w3.org/1999/xlink" x="0px" y="0px"
	 viewBox="0 0 1500 1200" style="enable-background:new 0 0 1500 1200;" xml:space="preserve">
<style type="text/css">
	.st0{fill-rule:evenodd;clip-rule:evenodd;fill:#05C0C7;}
</style>
<path class="st0" d="M759.1,552.5c-9.5,0-17.2,7.7-17.2,16.9v127.1c0,9.5,7.7,17.2,17.2,17.2c9.5,0,17.2-7.7,17.2-17.2V569.4
	C776.3,560.2,768.6,552.5,759.1,552.5z M759.1,489.1c-10.6,0-19.4,8.8-19.4,19.4c0,10.6,8.8,19.8,19.4,19.8
	c10.6,0,19.4-8.8,19.4-19.8C778.5,497.9,769.7,489.1,759.1,489.1z M926.9,569.4c0-10.6-8.4-14.7-16.1-14.7h-85.4
	c-8.4,0-15,6.6-15,14.7c0,8.4,6.6,15,15,15h56l-72.5,101.1c-2.2,2.9-3.3,7-3.3,10.3c0,10.6,8.4,16.5,15.8,16.5h90.5
	c8.4,0,15-6.6,15-15c0-8.4-6.6-15-15-15h-60.8l71.1-98.9C925.8,578.2,926.9,573.8,926.9,569.4z M675.6,649.2
	c0,20.9-9.2,33.7-30,33.7c-20.9,0-29.7-12.8-29.7-33.7v-64.9H647c25.3,0,28.6,13.9,28.6,29.3V649.2z M710,613
	c0-35.5-18.7-58.6-62.3-58.6h-31.5v-48c0-9.5-7.7-17.2-16.9-17.2c-9.5,0-17.2,7.7-17.2,17.2v142.9c0,35.5,19,64.5,64.1,64.5
	c44.7,0,64.1-29.3,64.1-64.5v-35.5V613H710z M1061.3,552.5c-9.5,0-17.2,7.7-17.2,17.2v79.5c0,20.9-9.2,33.7-30,33.7
	c-20.9,0-29.7-12.8-29.7-33.7v-79.5c0-9.5-7.7-17.2-16.9-17.2c-9.5,0-17.2,7.7-17.2,17.2v79.5c0,35.5,19,64.5,64.1,64.5
	c44.7,0,64.1-29.3,64.1-64.5v-79.5C1078.2,560.2,1070.5,552.5,1061.3,552.5z M1322.5,617.4c0-35.5-16.5-64.5-61.2-64.5
	c-20.2,0-34.4,5.9-44.3,15.8c-9.9-9.5-24.2-15.8-44.3-15.8c-44.7,0-61.2,29.3-61.2,64.5v79.5c0,9.5,7.7,17.2,16.9,17.2
	c9.5,0,17.2-7.7,17.2-17.2v-79.5c0-20.9,6.6-33.7,27.1-33.7c20.9,0,27.1,12.8,27.1,33.7v79.5c0,9.5,7.7,17.2,16.8,17.2
	c9.5,0,17.2-7.7,17.2-17.2v-79.5c0-20.9,6.6-33.7,27.1-33.7c20.9,0,27.1,12.8,27.1,33.7v79.5c0,9.5,7.7,17.2,16.8,17.2
	c9.5,0,17.2-7.7,17.2-17.2L1322.5,617.4z M269,552.9c12.1,8.8,28.9,6.2,37.7-5.9l31.5-43.6c8.8-12.1,6.2-28.9-5.9-37.7
	c-12.1-8.8-28.9-6.2-37.7,5.9l-31.9,43.6C254.3,527.2,256.9,544.1,269,552.9z M413.3,491.3c-12.1-8.8-28.9-6.2-37.7,5.9L248.8,671.6
	c-8.8,12.1-6.2,28.9,5.9,37.7c12.1,8.8,28.9,6.2,37.7-5.9l126.8-174.4C428.3,517,425.4,500.1,413.3,491.3z M256.9,477.4
	c8.8-12.1,6.2-28.9-5.9-37.7c-12.1-8.8-28.9-6.2-37.7,5.9c-8.8,12.1-6.2,28.9,5.9,37.7C231.2,492,248.1,489.5,256.9,477.4z
	 M449.2,717c-12.1-8.8-28.9-6.2-37.7,5.9c-8.8,12.1-6.2,28.9,5.9,37.7c12.1,8.8,28.9,6.2,37.7-5.9
	C463.9,742.7,461.3,725.8,449.2,717z M399.7,647.8c-12.1-8.8-28.9-6.2-37.7,5.9l-31.9,43.6c-8.8,12.1-6.2,28.9,5.9,37.7
	c12.1,8.8,28.9,6.2,37.7-5.9l31.9-43.6C414.4,673.4,411.8,656.6,399.7,647.8z"/>
</svg>
