<svg xmlns="http://www.w3.org/2000/svg" viewBox="0 0 44.05 44.36"><defs><style>.cls-1{fill:none;stroke:#231f20;stroke-linecap:round;stroke-linejoin:round;stroke-width:2px;}</style></defs><title>Asset 1</title><g id="Layer_2" data-name="Layer 2"><g id="Layer_2-2" data-name="Layer 2"><path class="cls-1" d="M15.37,4.14C16.82,2.13,20,1,23,1s6.33,1.2,7.71,3.32"></path><path class="cls-1" d="M18.33,7.5A5.93,5.93,0,0,1,23,5.57c1.87,0,3.88.74,4.73,2"></path><path class="cls-1" d="M32,42.25h9.1a2,2,0,0,0,2-2V15.68a2,2,0,0,0-2-2H20.69v3.2H3a2,2,0,0,0-2,2V40.25a2,2,0,0,0,2,2H21.38"></path><path class="cls-1" d="M5.86,13.87h0A2.44,2.44,0,0,1,8.3,16.31v.57a0,0,0,0,1,0,0H3.42a0,0,0,0,1,0,0v-.57A2.44,2.44,0,0,1,5.86,13.87Z"></path><path class="cls-1" d="M13.82,13.87h.72a3,3,0,0,1,3,3v0a0,0,0,0,1,0,0H11.23a0,0,0,0,1,0,0v-.42a2.59,2.59,0,0,1,2.59-2.59Z"></path><line class="cls-1" x1="26.33" y1="20.03" x2="1" y2="20.03"></line><polyline class="cls-1" points="43.05 21.47 36.3 21.47 31.95 21.47"></polyline><circle class="cls-1" cx="26.33" cy="31.7" r="11.66"></circle><circle class="cls-1" cx="26.33" cy="31.7" r="7.81"></circle><rect class="cls-1" x="34.28" y="16.47" width="4.55" height="2.6"></rect></g></g></svg>