<?xml version="1.0" encoding="UTF-8"?>
<svg id="Capa_1" data-name="Capa 1" xmlns="http://www.w3.org/2000/svg" viewBox="0 0 226.77 226.77">
  <defs>
    <style>
      .cls-1 {
        fill: #858755;
      }

      .cls-1, .cls-2 {
        stroke-width: 0px;
      }

      .cls-2 {
        fill: #fff;
      }
    </style>
  </defs>
  <circle class="cls-1" cx="113.82" cy="113.07" r="113.07"/>
  <g>
    <polygon class="cls-2" points="123.76 112.23 123.76 113.7 125.38 113.7 125.38 107.62 125.39 107.62 125.39 40.43 137.04 40.43 137.04 38.96 113.42 38.96 94 95.43 93.79 95.43 74.37 38.96 51.17 38.96 51.17 40.43 62.83 40.43 62.83 112.23 51.17 112.23 51.17 113.7 84.98 113.7 84.98 112.23 73.32 112.23 73.32 41.06 73.53 41.06 98.62 113.8 123.6 41.79 123.81 41.79 123.81 112.23 123.76 112.23"/>
    <path class="cls-2" d="m174.18,138.63c-.94-3.64-2.41-7-4.41-10.08-2-3.08-4.55-5.79-7.66-8.13-3.11-2.34-6.8-4.21-11.07-5.62-1.47-.49-2.85-.89-4.15-1.21-1.3-.32-2.66-.56-4.09-.74-1.44-.17-2.98-.3-4.62-.37-1.64-.07-3.52-.1-5.61-.1-.98,0-1.96.02-2.94.05-.49.02-.98.02-1.48.03v1.48c1.29-.05,2.68-.09,4.2-.09,5.88,0,10.81.87,14.8,2.62,3.99,1.75,7.19,4.22,9.61,7.4,2.41,3.18,4.15,7.03,5.19,11.55,1.05,4.51,1.57,9.53,1.57,15.06,0,4.69-.44,9.01-1.31,12.96-.87,3.95-2.43,7.82-4.67,11.6-1.47,2.45-3.13,4.43-4.99,5.93s-3.85,2.66-5.98,3.46c-2.14.8-4.37,1.33-6.72,1.57-2.35.25-4.71.37-7.09.37-1.89,0-3.62-.04-5.19-.11h-4.15s-22.18.01-22.18.01v1.51h33.35c1.05,0,2.9.01,4.79-.06,1.89-.07,3.62-.21,5.19-.42,1.57-.21,3.11-.52,4.62-.94,1.5-.42,3.1-1.01,4.78-1.78,3.01-1.26,5.82-2.92,8.45-4.99,2.62-2.06,4.91-4.51,6.87-7.35,1.96-2.83,3.5-6.09,4.62-9.76,1.12-3.67,1.68-7.82,1.68-12.44,0-3.99-.47-7.8-1.42-11.44Z"/>
    <path class="cls-2" d="m112.11,151.31c-1.54,0-3.12-.38-4.66-1.14-3.26-1.61-5.87-4.72-6.79-8.12-1.94-7.16,1.82-14.14,4.24-17.66,2.14-3.12,4.42-5.51,6.96-7.28,3.25-2.27,7.3-3.74,11.88-4.34.11-3.61.14-7.21.1-10.81l1.54-.02c.04,3.54.01,7.1-.09,10.66.96-.08,1.93-.13,2.93-.14v1.54c-1.01,0-2.01.06-2.98.15-.24,6.99-.75,13.98-1.54,20.89-.62,5.51-2.16,13.13-8.22,15.62-1.07.44-2.21.66-3.38.66Zm11.58-36.98c-4.23.59-7.96,1.96-10.94,4.05-2.39,1.67-4.54,3.92-6.57,6.89-2.27,3.3-5.81,9.82-4.02,16.38.81,2.99,3.1,5.73,5.98,7.14,2.29,1.13,4.7,1.28,6.77.44,5.3-2.18,6.69-9.24,7.27-14.36.77-6.79,1.28-13.66,1.52-20.53Z"/>
  </g>
</svg>