<?xml version="1.0" encoding="UTF-8"?>
<svg id="Capa_1" data-name="Capa 1" xmlns="http://www.w3.org/2000/svg" viewBox="0 0 226.77 226.77">
  <defs>
    <style>
      .cls-1 {
      fill: #211915;
      }

      .cls-1, .cls-2, .cls-3 {
      stroke-width: 0px;
      }

      .cls-2 {
      fill: rgb(97, 112, 88);
      }

      .cls-3 {
      fill: #ebc7a0;
      }
    </style>
  </defs>
  <g>
    <polygon class="cls-2"
      points="36.43 134.82 43.55 134.82 43.55 90.9 36.43 90.9 36.43 90 50.88 90 62.76 124.55 62.89 124.55 74.77 90 88.96 90 88.96 90.9 81.83 90.9 81.83 134.82 88.96 134.82 88.96 135.72 68.28 135.72 68.28 134.82 75.41 134.82 75.41 91.28 75.28 91.28 59.93 135.79 44.65 91.73 44.52 91.73 44.52 134.82 51.65 134.82 51.65 135.72 36.43 135.72 36.43 134.82" />
    <path class="cls-2"
      d="m144.88,134.74h7.13v-43.93h-7.13v-.9h11.95c.6,0,1.2,0,1.8-.03.6-.02,1.2-.05,1.8-.1.6,0,1.2,0,1.8-.03.6-.02,1.2-.03,1.8-.03,1.28,0,2.43.02,3.43.06,1.01.04,1.95.12,2.83.23.88.11,1.71.26,2.51.45.79.19,1.64.44,2.54.74,2.61.86,4.87,2,6.77,3.44,1.9,1.43,3.47,3.09,4.69,4.98,1.22,1.89,2.12,3.94,2.7,6.17.58,2.23.87,4.56.87,7,0,2.83-.34,5.36-1.03,7.61-.69,2.25-1.63,4.24-2.83,5.97-1.2,1.73-2.6,3.23-4.21,4.5-1.6,1.26-3.33,2.28-5.17,3.05-1.03.47-2,.83-2.92,1.09-.92.26-1.86.45-2.83.58-.96.13-2.02.21-3.18.26-1.16.04-2.48.06-3.98.06-.64,0-1.33,0-2.05-.03-.73-.02-1.46-.05-2.18-.1-.73-.04-1.45-.08-2.15-.1-.71-.02-1.38-.03-2.02-.03h-10.92v-.9Zm13.55,0c.73.09,1.57.15,2.54.19.96.04,2.02.06,3.18.06,1.46,0,2.9-.07,4.33-.23,1.43-.15,2.8-.47,4.11-.96,1.31-.49,2.53-1.2,3.66-2.12,1.13-.92,2.15-2.13,3.05-3.63,1.37-2.31,2.32-4.68,2.86-7.1.54-2.42.8-5.06.8-7.93,0-3.38-.32-6.46-.96-9.22-.64-2.76-1.7-5.12-3.18-7.06-1.48-1.95-3.44-3.46-5.88-4.53-2.44-1.07-5.46-1.6-9.05-1.6-1.07,0-2.05.02-2.92.06-.88.04-1.72.09-2.54.13v43.93Z" />
  </g>
  <g>
    <path class="cls-2"
      d="m65.29,167.02l.3-.3c1.27,1.1,1.39,1.11,2.18.31l4.07-4.13c.54-.55.49-.64.06-1.15l-.47-.57.26-.27c.83.58,1.71,1.11,2.49,1.42l-5.52,5.6c-.81.82-.79.92.35,2.19l-.3.3-3.42-3.37Z" />
    <path class="cls-2"
      d="m77.2,174.67c-.57.42-1.24.87-1.7,1.22l-4.52-3.47.22-.29c1.16-.14,2.42-.29,3.53-.53,1.44-.31,2.89-.71,3.69-1.75.76-.99.68-1.97-.19-2.65-.83-.64-1.84-.39-2.51-.16l-.08-.46,1.43-.44c.69-.13,1.5,0,2.19.55,1.14.87,1.43,2.34.44,3.64-.78,1.02-1.71,1.45-3.74,1.74-.93.14-2.24.29-3.14.39.07.06,2.18,1.68,2.29,1.76.65.5.87.58,1.86.13l.23.33Z" />
    <path class="cls-2"
      d="m86.72,182.41l.19-.38c.94.32,1.11.24,1.17-.37.08-.62.14-1.43.27-2.42l-2.94-1.43c-.51.5-.98.94-1.44,1.4-.73.74-.59.94.46,1.62l-.19.38-3.14-1.53.18-.38c.91.31,1.17.32,2.24-.67l6.29-5.77.47.13c-.27,2.74-.59,5.77-.87,8.53-.14,1.39-.07,1.56.84,2.14l-.19.38-3.36-1.63Zm2.17-7.9c-1,.96-2.07,1.97-3,2.85l2.54,1.24.46-4.08Z" />
    <path class="cls-2"
      d="m98.7,181.22c1.32.65,2.24,1.67,1.81,3.07-.3.98-1.09,1.6-2.08,1.8-.88.19-1.66.11-2.67-.2l-3.56-1.09.12-.4c1.26.26,1.38.15,1.72-.99l1.77-5.8c.37-1.2.27-1.34-.87-1.8l.12-.4,3.79,1.16c1.08.33,1.71.73,2.07,1.19.4.5.58,1.14.36,1.88-.41,1.36-1.72,1.64-2.59,1.6m-3.4,2.53c-.32,1.04-.15,1.38.87,1.69,1.13.35,2.41.08,2.88-1.44.45-1.47-.4-2.43-2.16-2.97l-.69-.21-.9,2.94Zm1.79-3.22c1.59.49,2.44.05,2.8-1.14.31-1.01-.07-1.98-1.46-2.41-.4-.12-.68-.16-.85-.1-.14.05-.23.2-.38.66l-.84,2.76.74.23Z" />
    <path class="cls-2"
      d="m111.29,189.11c-.2-.03-.36-.07-.55-.11-1.08-.23-1.62-.6-2.15-1.62-.44-.84-.84-1.86-1.21-2.7-.23-.52-.41-.64-1.17-.75l-.52-.08-.34,2.35c-.18,1.27-.03,1.37,1.15,1.66l-.06.42-3.99-.58.06-.42c1.26.05,1.38,0,1.56-1.27l.87-5.97c.18-1.27.03-1.34-1.13-1.65l.06-.42,3.81.55c1.09.16,1.81.4,2.32.86.56.48.86,1.21.73,2.12-.19,1.29-1.13,1.97-2.3,2.29.2.5.7,1.6,1.05,2.34.44.87.67,1.29.96,1.71.34.49.66.71.99.85l-.12.41Zm-4.81-5.66c.78.11,1.29.06,1.71-.19.65-.35.97-.91,1.09-1.72.23-1.6-.74-2.34-1.9-2.5-.43-.06-.7-.04-.81.03-.15.09-.22.23-.27.62l-.53,3.66.72.1Z" />
    <path class="cls-2"
      d="m113.34,188.97v-.42c1.25-.11,1.37-.17,1.4-1.46l.11-6c.02-1.3-.1-1.36-1.33-1.52v-.42s4.06.07,4.06.07v.42c-1.26.11-1.39.17-1.41,1.47l-.11,6c-.02,1.3.1,1.35,1.35,1.51v.42s-4.06-.08-4.06-.08Z" />
    <path class="cls-2"
      d="m127.6,185.76c-.04.48-.33,2.08-.44,2.57l-6.99.71-.04-.42c1.36-.27,1.47-.36,1.34-1.64l-.61-5.97c-.13-1.28-.29-1.34-1.5-1.34l-.04-.42,4.03-.41.04.42c-1.19.24-1.35.32-1.22,1.61l.62,6.12c.09.92.24,1.11,1.09,1.04.02,0,1.1-.1,1.19-.1.77-.08.98-.19,1.29-.6.34-.43.59-1.06.76-1.64l.48.07Z" />
    <path class="cls-2"
      d="m140.01,183.02c.01.71,0,1.52.02,2.1l-5.44,1.68-.11-.35c.55-1.03,1.16-2.15,1.61-3.19.58-1.35,1.09-2.77.7-4.03-.37-1.2-1.22-1.7-2.27-1.37-1,.31-1.38,1.28-1.58,1.96l-.43-.2.46-1.42c.29-.64.87-1.22,1.71-1.48,1.37-.42,2.74.18,3.22,1.74.38,1.23.2,2.23-.74,4.06-.42.84-1.06,2-1.5,2.79.09-.03,2.63-.81,2.76-.85.78-.24.97-.38,1.18-1.44h.4Z" />
    <path class="cls-2"
      d="m141.86,174.02c2.07-.93,3.88,1.03,4.85,3.17.91,2.01,1.24,4.81-.82,5.74-2.11.95-3.9-.97-4.89-3.15-.91-2.01-1.23-4.82.87-5.76m.22.48c-1.28.58-.68,2.75.18,4.67.87,1.93,2.19,3.82,3.4,3.27,1.24-.56.65-2.76-.23-4.69-.88-1.94-2.13-3.81-3.36-3.26" />
    <path class="cls-2"
      d="m155.14,175.36c.19.68.37,1.48.53,2.03l-4.87,2.96-.19-.31c.29-1.13.6-2.36.78-3.49.23-1.45.38-2.96-.31-4.08-.65-1.07-1.6-1.35-2.54-.77-.89.54-1.02,1.58-1.05,2.29l-.46-.09.1-1.49c.12-.7.55-1.4,1.3-1.85,1.23-.75,2.71-.5,3.56.9.67,1.1.74,2.12.28,4.12-.2.92-.54,2.2-.77,3.07.08-.05,2.35-1.43,2.46-1.5.7-.42.85-.61.79-1.69l.39-.09Z" />
    <path class="cls-2"
      d="m156.79,164.76l.15.04.31,1.02-2.72,2.17c.41.73.99,1.78,1.35,2.44.32-.52.83-1.22,1.12-1.45,1.46-1.16,3.04-.74,3.82.24.57.71.82,1.63.56,2.8-.24,1.04-.81,1.99-1.43,2.49-.56.44-1.17.57-1.6.52-.29-.02-.41-.08-.51-.25-.08-.11-.13-.36-.07-.6.05-.15.14-.26.33-.26.59.03,1.28.05,2.01-.53.99-.79.79-2.02.08-2.91-.83-1.04-2.05-1.29-3.36-.24-.48.39-.79.8-1.01,1.15l-.07-.02c-.56-1.06-1.62-2.94-2.24-3.99l3.29-2.62Z" />
  </g>
  <polygon class="cls-2"
    points="113.83 42.08 113.84 45.54 112.93 45.54 112.93 42.08 109.74 42.09 109.74 41.25 112.93 41.25 112.92 38.11 113.83 38.11 113.83 41.25 117.01 41.25 117.01 42.08 113.83 42.08" />
  <g>
    <g>
      <path class="cls-2"
        d="m67.9,62.49l-.27-.32c.87-.89.85-.99-.21-2.22l-3.96-4.73c.83,2.91,2.09,7.51,2.54,8.86l-.3.25c-1.28-.72-5.26-2.8-7.9-4.16,3.21,4.21,3.96,5.14,4.15,5.36.56.64.92.49,1.78-.09l.27.32-2.74,2.3-.27-.32c.61-.63.77-1,.34-1.71-.36-.57-.7-.99-3.95-5.47-.46-.64-.74-.74-1.84.02l-.27-.32,2.01-1.69,7.49,3.71-2.19-8.17,2.02-1.7.27.32c-.9.95-.94,1.16-.23,1.95l3.78,4.4c1.09,1.2,1.17,1.23,2.28.48l.27.32-3.08,2.59Z" />
      <path class="cls-2"
        d="m77.1,56.37l-.21-.37c.79-.6.82-.79.34-1.18-.47-.41-1.11-.91-1.86-1.57l-2.82,1.64c.13.71.23,1.33.36,1.98.21,1.02.45,1.01,1.6.52l.21.37-3.02,1.76-.21-.37c.76-.58.92-.8.69-2.24l-1.29-8.43.37-.32c2.12,1.75,4.46,3.7,6.6,5.48,1.08.89,1.26.93,2.25.49l.21.37-3.23,1.88Zm-5.36-6.2c.24,1.37.48,2.81.69,4.07l2.44-1.42-3.14-2.65Z" />
      <path class="cls-2"
        d="m89.54,50.86c-.18.07-.34.12-.53.18-1.05.35-1.7.3-2.67-.31-.81-.5-1.67-1.18-2.41-1.71-.46-.33-.68-.34-1.39-.05l-.49.2.9,2.19c.49,1.19.67,1.19,1.83.85l.16.39-3.73,1.53-.16-.39c1.11-.6,1.18-.7.7-1.88l-2.28-5.58c-.49-1.19-.66-1.17-1.81-.84l-.16-.39,3.56-1.46c1.02-.42,1.76-.57,2.43-.44.72.13,1.36.6,1.71,1.46.49,1.2.03,2.27-.82,3.14.43.33,1.41,1.02,2.09,1.48.82.53,1.23.77,1.69.99.54.25.93.27,1.28.23l.1.41Zm-7.02-2.43c.73-.3,1.14-.6,1.37-1.03.38-.63.37-1.28.07-2.03-.61-1.5-1.83-1.64-2.9-1.19-.41.17-.62.32-.68.44-.09.15-.07.31.08.67l1.4,3.42.67-.27Z" />
      <path class="cls-2"
        d="m90.45,50.59l-.12-.41c1.16-.47,1.26-.56.91-1.79l-1.63-5.78c-.35-1.25-.49-1.28-1.71-1.07l-.12-.41,3.9-1.1.11.41c-1.17.47-1.27.56-.92,1.81l1.63,5.77c.35,1.25.48,1.26,1.73,1.05l.11.41-3.9,1.1Z" />
      <path class="cls-2"
        d="m101.46,48.1l-.07-.42c.95-.28,1.04-.44.74-.98-.29-.55-.71-1.25-1.17-2.14l-3.22.52c-.13.71-.26,1.33-.37,1.97-.17,1.02.06,1.11,1.3,1.06l.07.42-3.45.56-.07-.42c.92-.27,1.14-.41,1.45-1.84l1.82-8.33.46-.17c1.35,2.4,2.84,5.05,4.19,7.48.69,1.22.84,1.32,1.92,1.27l.07.42-3.69.59Zm-2.78-7.71c-.27,1.36-.56,2.8-.82,4.05l2.79-.45-1.97-3.6Z" />
    </g>
    <g>
      <path class="cls-2"
        d="m129.33,39.47c2.07.48,3.29,1.2,4,2.28.56.87.85,2.03.52,3.44-.4,1.72-1.43,2.96-2.76,3.55-1.31.58-2.82.57-4.63.15l-3.44-.8.1-.41c1.29.18,1.38.09,1.66-1.12l1.37-5.87c.3-1.26.13-1.37-.99-1.75l.1-.41,4.09.95Zm-3.26,7.26c-.26,1.1.14,1.52,1.25,1.78,2.65.62,4.42-.88,5.02-3.45.37-1.6.11-2.95-.89-3.93-.58-.58-1.39-.95-2.38-1.17-.66-.15-1.04-.15-1.21-.06-.15.06-.25.21-.38.78l-1.41,6.06Z" />
      <path class="cls-2"
        d="m139.19,52.88l.16-.39c.96.25,1.12.16,1.14-.45.04-.62.04-1.43.1-2.43l-3.03-1.22c-.48.54-.91,1-1.33,1.5-.67.79-.52.98.57,1.58l-.16.39-3.24-1.3.16-.39c.93.24,1.19.23,2.19-.83l5.86-6.19.48.1c-.08,2.75-.18,5.79-.27,8.57-.04,1.4.04,1.56.99,2.08l-.16.39-3.46-1.39Zm1.6-8.03c-.93,1.03-1.92,2.11-2.79,3.05l2.62,1.05.17-4.1Z" />
      <path class="cls-2"
        d="m155.2,50.56c-.95-.37-1.24-.38-2.38.55-.84.67-5.12,4.09-6.68,5.37l-.44-.24c.4-2.56.98-6.28,1.31-8.65.17-1.18.02-1.44-.74-1.97l.2-.37,3.36,1.86-.21.37c-1.04-.44-1.18-.31-1.26.28-.2,1.15-.7,4.31-1.08,6.97,1.65-1.32,3.71-2.99,5.26-4.3.72-.6.62-.81-.39-1.54l.21-.37,3.04,1.69-.21.37Z" />
      <path class="cls-2"
        d="m151.36,59.46l.25-.34c1.08.61,1.22.63,1.97-.41l3.5-4.87c.76-1.06.7-1.18-.23-2.01l.25-.34,3.29,2.36-.25.34c-1.1-.62-1.23-.64-1.99.41l-3.5,4.87c-.76,1.05-.69,1.16.25,2l-.25.34-3.29-2.36Z" />
      <path class="cls-2"
        d="m165.98,58.52c1.56,1.45,2.26,2.67,2.34,3.96.05,1.03-.27,2.18-1.26,3.24-1.2,1.3-2.71,1.86-4.16,1.71-1.43-.15-2.73-.9-4.09-2.16l-2.59-2.4.29-.31c1.03.79,1.15.76,1.99-.15l4.1-4.42c.88-.95.79-1.12,0-2.01l.29-.31,3.08,2.85Zm-6.43,4.69c-.77.83-.63,1.39.2,2.16,2,1.85,4.28,1.43,6.07-.51,1.12-1.21,1.56-2.51,1.18-3.85-.21-.79-.74-1.51-1.48-2.2-.5-.46-.83-.64-1.02-.66-.16-.03-.32.05-.72.49l-4.23,4.57Z" />
    </g>
  </g>
  <g>
    <path class="cls-2"
      d="m101.87,150.05c5.31-5.01,11.2-9.2,17.35-13.12.87-.55,1.87.45,1.33,1.32-.4.64-.91,1.24-1.42,1.79-2.19,2.36-4.5,4.61-6.91,6.75-1.31,1.16-2.82,2.11-4.4,2.87-1.33.64-2.61,1.19-4.04,1.53-.48.11-1,.23-1.45.04-.46-.19-.76-.8-.46-1.19" />
    <path class="cls-2"
      d="m101.6,150.5c-3.26-.28,1.15-15.34,3.8-22.68.19-.54.4-1.08.65-1.6.44-.91,1.79-.61,1.8.4.02,9.67-3.5,24.42-6.25,23.88" />
    <path class="cls-1"
      d="m119.13,138.65c-2.84,1.84-5.01,4.41-7.61,6.55-2.71,2.03-5.8,3.41-8.93,4.63,3.01-1.44,6.06-2.89,8.72-4.9,2.55-2.12,4.85-4.71,7.82-6.28" />
    <path class="cls-1"
      d="m106.52,128.35c-1.85,6.94-2.98,14.35-3.93,21.48.48-7.27,1.61-14.56,3.93-21.48" />
    <path class="cls-2"
      d="m114.22,107.7c.38-7.29,1.75-14.39,3.49-21.47.24-1,1.67-.97,1.88.04.15.74.2,1.53.21,2.28.04,3.22-.07,6.44-.34,9.65-.14,1.74-.59,3.47-1.2,5.11-.52,1.38-1.07,2.66-1.87,3.9-.27.41-.56.85-1.02,1.03-.46.18-1.11-.05-1.15-.54" />
    <path class="cls-2"
      d="m114.34,108.21c-2.56,2.05-9.76-11.89-12.91-19.03-.23-.52-.45-1.06-.63-1.61-.31-.96.88-1.68,1.58-.95,6.69,6.99,14.34,20.08,11.96,21.59" />
    <path class="cls-2"
      d="m110.87,87.25c-2.31,1.04-8.44-12.84-10.99-19.99-.23-.64-.38-1.5.24-1.86.67-.39,1.48.27,1.96.87,4.04,5.11,7.01,10.94,8.71,17.07.35,1.26.96,3.55.2,3.83l-.13.07Z" />
    <path class="cls-2"
      d="m113.67,127c-2.08-1.44,6.63-13.86,11.43-19.74.43-.53,1.09-1.1,1.71-.76.68.38.54,1.41.27,2.13-2.28,6.1-5.74,11.66-10.11,16.28-.9.95-2.54,2.65-3.17,2.15l-.13-.07Z" />
    <path class="cls-2"
      d="m114.88,126.65c2.11-1.4-6.32-14.01-10.99-19.99-.42-.54-1.07-1.13-1.7-.8-.69.36-.57,1.4-.31,2.12,2.15,6.15,5.48,11.78,9.74,16.51.88.97,2.48,2.71,3.12,2.22l.13-.07Z" />
    <path class="cls-1"
      d="m101.33,67.52c7.27,9.85,10.88,21.76,13.15,33.66,3.77,17.08.32,32.04-9.61,46.35-2.37,3.31-5.32,6.13-8.41,8.74,2.9-2.8,5.7-5.75,7.89-9.09,6.44-10.05,10.91-21.84,10.48-33.88-.23-8-2.11-15.9-3.99-23.71-1.93-7.83-5.18-15.26-9.51-22.07" />
    <path class="cls-1"
      d="m118.84,87.53c-.78,3.29-.58,6.65-.98,9.99-.56,3.33-1.84,6.47-3.26,9.52,1.18-3.12,2.39-6.27,2.92-9.57.38-3.29.26-6.75,1.32-9.94" />
    <path class="cls-1"
      d="m102.6,88.8c3.46,6.29,7.76,12.43,11.99,18.25-4.68-5.59-8.89-11.64-11.99-18.25" />
    <path class="cls-1"
      d="m103.15,107.95c2.51,2.23,3.71,5.49,5.27,8.36,1.54,2.92,3.47,5.61,5.65,8.09-2.4-2.29-4.39-5-5.97-7.92-1.55-2.91-2.65-6.1-4.96-8.53" />
    <path class="cls-1"
      d="m125.42,108.81c-1.07,3.03-2.82,5.77-4.46,8.51-1.53,2.84-3.83,5.2-6.45,7.07,2.42-2.11,4.62-4.4,6.15-7.25,1.46-2.41,3.65-5.76,4.76-8.33" />
    <path class="cls-3"
      d="m131.12,120.54c1.07,1.67-.06,4.3-2.53,5.88-2.47,1.59-5.33,1.52-6.4-.14s.06-4.3,2.53-5.88c2.47-1.58,5.33-1.52,6.4.15" />
    <path class="cls-1"
      d="m111.11,135.4c2.66-4.72,7.07-9.15,12.66-9.89-5.44,1.22-9.6,5.43-12.66,9.89" />
    <path class="cls-1" d="m123.95,125.95c-.22-.2-.36-.37-.52-.62.29.06.51.33.52.62" />
    <path class="cls-3"
      d="m129.61,130.7c.19,1.64-1.63,3.21-4.07,3.49-2.44.28-4.57-.82-4.76-2.46-.19-1.65,1.63-3.21,4.07-3.49,2.44-.28,4.57.82,4.76,2.47" />
    <path class="cls-1"
      d="m109.13,139.63c3.05-4.32,7.99-7.43,13.31-7.81l-1.91.54c-4.64.83-8.26,3.96-11.4,7.27" />
    <path class="cls-1" d="m122.59,132.18c-.15-.2-.24-.36-.34-.59.23.09.37.35.34.59" />
  </g>
</svg>