<?xml version="1.0" encoding="UTF-8"?>
<svg id="Capa_1" data-name="Capa 1" xmlns="http://www.w3.org/2000/svg" viewBox="0 0 226.77 226.77">
  <defs>
    <style>
      .cls-1 {
        fill: #fff;
      }

      .cls-1, .cls-2 {
        stroke-width: 0px;
      }

      .cls-2 {
        fill: #ebc7a0;
      }
    </style>
  </defs>
  <g>
    <path class="cls-1" d="m65.83,188.61c6.39-5.96,12.68-12.12,19.97-16.99,3.62-2.46,7.37-4.72,11.05-7.06l5.5-3.56c.42-.26,1.02-.72,1.53-.81,2.08-.48,3.73,2.04,2.5,3.77-2.39,3.77-5.61,6.76-8.65,9.95-6.15,6.19-12.67,12.72-21.13,15.52-2.06.78-4.17,1.45-6.34,1.87-1.5.33-3.74.69-4.55-1.05-.25-.5-.29-1.17.11-1.64h0Zm.12.11c-.32.4-.29.99-.05,1.45,1.36,2.9,8.17-.8,10.29-1.71,3.88-1.94,7.62-4.08,10.86-6.86,4.89-4.27,9.7-8.73,14.3-13.33,1.53-1.56,3.11-3.03,4.31-4.79.27-.39.41-.8.34-1.25-.16-1.18-1.62-1.9-2.63-1.19-5.86,3.49-11.37,7.52-16.76,11.66-6.88,5.33-14.26,10.07-20.64,16.01h0Z"/>
    <path class="cls-1" d="m64.13,189.34c-6.49-.43-2.35-22.96-1.46-27.46,1.63-7.39,3.68-15.35,5.6-22.69.15-.48.61-2.13.75-2.61.29-1.02,1.37-1.79,2.45-1.69,1.61.06,2.44,1.48,2.44,2.96.38,3.59.5,7.21.48,10.81-.05,9.62-1,19.26-3.33,28.61-.89,3.06-3.08,12.21-6.94,12.06,0,0,.02-.16.02-.16,1.21.01,1.97-1.12,2.53-2.06,3.55-7.51,4.18-16.07,5.2-24.23.88-8.54,1.35-17.22.88-25.8-.08-1.24-1.81-1.77-2.65-.87-.33.25-.53,1.08-.68,1.47-2.74,7.9-4.12,16.21-5.43,24.44-.76,4.71-1.55,9.41-2.04,14.14-.31,3.51-.72,7.11.06,10.56.28,1.07.88,2.26,2.12,2.35,0,0,0,.16,0,.16h0Z"/>
    <path class="cls-1" d="m101.83,165.28c-6.01,3.83-10.89,9.48-16.39,13.94-5.83,4.3-12.47,7.24-19.19,9.81,6.45-3.05,13.03-6.1,18.74-10.39,5.49-4.51,10.44-10.03,16.84-13.36h0Z"/>
    <path class="cls-1" d="m70.8,143.16c-3.02,15.33-4.44,30.89-5.51,46.46.04-15.61,1.49-31.35,5.51-46.46h0Z"/>
    <path class="cls-1" d="m92.72,97.32c1.64-8.58,3.07-17.27,6.08-25.51,1.47-4.12,3.16-8.16,4.75-12.23l2.33-6.12c.19-.46.4-1.18.76-1.56,1.39-1.62,4.21-.56,4.24,1.56.3,4.46-.54,8.77-1.1,13.14-1.31,8.63-2.71,17.75-7.88,25-1.2,1.85-2.51,3.64-4.01,5.25-1.01,1.15-2.61,2.76-4.29,1.84-.5-.26-.92-.78-.88-1.39h0Zm.16.02c-.02.51.35.97.81,1.2,2.81,1.54,6.12-5.47,7.29-7.46,5.31-9.64,6.46-20.34,8.37-31.15.32-2.16.72-4.28.65-6.41-.02-.48-.14-.89-.46-1.2-.82-.86-2.43-.58-2.82.59-2.67,6.27-4.73,12.78-6.64,19.31-2.4,8.36-5.55,16.55-7.2,25.11h0Z"/>
    <path class="cls-1" d="m91.89,99.47c-5.29,3.76-16.21-16.5-18.28-20.54-2.17-4.28-4.1-8.68-6.09-13.03-1.24-2.67-3.7-8-4.74-10.7-.77-1.79,1.08-3.81,2.96-3.25.68.17,1.21.73,1.65,1.19.85.85,1.67,1.73,2.48,2.63,7.98,8.99,14.86,19.02,19.92,29.95,1.22,2.94,5.22,11.46,2.11,13.75,0,0-.09-.14-.09-.14.47-.34.68-.9.75-1.46.17-1.75-.45-3.47-1-5.12-2.53-6.66-6.32-12.78-10.13-18.78-4.64-7.22-9.69-14.3-15.42-20.7-1.12-1.17-3.12.2-2.53,1.71,2.81,8.19,7.05,15.82,11.31,23.32,3.55,6.18,6.87,12.56,11.38,18.08,1.39,1.44,3.4,4.18,5.62,2.96,0,0,.1.13.1.13h0Z"/>
    <path class="cls-1" d="m84.71,54.53c-2.99,1.04-7.72-7.28-9.23-9.51-4.86-7.78-7.98-16.44-11.17-24.98-.79-2.21-2.97-7.45-3.57-9.66-.63-2.21.93-4.28,3.29-3.33,1.73.7,2.8,2.35,3.87,3.67,8.5,10.82,14.72,23.5,17.33,37.04.31,1.69.7,3.39.57,5.12-.04.54-.26,1.27-.81,1.5,0,0-.28.16-.28.16h0Zm-.07-.14c2.85-1.05-1.36-10.72-2.04-12.97-3.24-8.45-7.05-16.67-11.92-24.31-1.21-1.91-2.48-3.79-3.79-5.63-1.17-1.48-2.48-4.09-4.55-3.68-2.04.96-.42,4,.06,5.66.75,2.15,1.54,4.28,2.4,6.39,1.73,4.21,3.71,8.31,5.68,12.41,2.22,3.85,9.62,23.43,14.16,22.13h0Z"/>
    <path class="cls-1" d="m91.24,138.23c-4.29-3.78,15.31-30.91,18.6-35.48,1.36-1.83,2.74-3.65,4.16-5.44,1.41-1.76,3.73-5.18,6.39-3.3,2.22,1.99.62,5.1-.24,7.31-.87,2.12-1.83,4.21-2.86,6.25-4.11,8.18-9.37,15.76-15.46,22.57-2.31,2.51-4.59,5.09-7.25,7.24-.93.67-2.22,1.71-3.34.85h0Zm0,0s.28.15.28.15c.49.34,1.12.14,1.61-.1,3.43-2.04,5.88-5.37,8.52-8.29,5.79-7,10.61-14.78,14.38-23.02.97-2.04,1.83-4.14,2.68-6.23.59-1.62,1.95-4.16.7-5.45-.28-.2-.55-.27-.91-.17-1.41.5-2.24,2-3.29,3.17-1.44,1.75-2.87,3.52-4.27,5.31-3.65,4.75-23.94,30.05-19.7,34.64h0Z"/>
    <path class="cls-1" d="m91.65,137.42c3.56-3.1-8.79-19.98-10.81-23.95-2.35-3.89-4.71-7.78-7.29-11.53-1.29-1.87-2.65-3.7-4.04-5.5-1.13-1.33-2.79-4.31-4.7-3.14-1.48,1.51,0,4.04.59,5.82.83,2.11,1.71,4.19,2.65,6.25,3.75,8.25,8.55,15.93,13.86,23.26,2.43,3.06,4.62,6.59,7.94,8.76.48.26,1.08.47,1.53.17,0,0,.28-.14.28-.14h0Zm.08.14s-.28.15-.28.15c0,0,.01,0,.01,0-.55.37-1.22.12-1.71-.13-1.52-.83-2.74-2.09-3.98-3.27-9.92-9.58-17.15-21.72-21.57-34.74-.52-1.63-1.31-3.42-.96-5.25.48-2.46,3.07-2.7,4.59-.94,1.51,1.68,4.73,6.4,6.15,8.27,5.41,7.34,10.96,14.67,14.83,23,1.06,2.54,5.43,10.95,2.93,12.93h0Z"/>
    <path class="cls-1" d="m64.48,12.06c4.95,7.11,9.38,14.59,13.07,22.44,7.3,15.79,11.32,32.84,14.71,49.84,7.78,37.34.45,68.01-21.22,99.19-5.11,7.07-11.47,13.07-18.14,18.61,6.24-5.96,12.3-12.23,17.03-19.37,13.9-21.44,23.63-46.67,22.86-72.45-.34-12.86-2.6-25.67-5.33-38.25-2.68-12.63-5.84-25.22-10.97-37.1-3.33-7.97-7.5-15.55-12-22.92h0Z"/>
    <path class="cls-1" d="m108.46,55.86c-2.59,6.63-3.19,14.09-4.99,20.93-2.16,6.91-5.79,13.21-9.69,19.25,3.4-6.27,6.91-12.62,8.99-19.46,1.77-6.88,2.5-14.26,5.7-20.73h0Z"/>
    <path class="cls-1" d="m66.94,57.66c7.47,13.72,16.33,26.6,25.46,39.26-9.95-12.03-18.89-25.06-25.46-39.26h0Z"/>
    <ellipse class="cls-2" cx="118.91" cy="130.75" rx="11.5" ry="7.76" transform="translate(-51.52 83.96) rotate(-32.36)"/>
    <path class="cls-1" d="m85.09,156.52c5.82-10.21,15.44-19.73,27.55-21.26-1.47.27-2.9.71-4.28,1.24-9.81,3.69-17.39,11.57-23.27,20.02h0Z"/>
    <path class="cls-1" d="m113.03,136.21c-.48-.43-.79-.79-1.13-1.35.63.11,1.13.71,1.13,1.35h0Z"/>
    <ellipse class="cls-2" cx="115.65" cy="147.64" rx="9.63" ry="6.5" transform="translate(-15.46 13.54) rotate(-6.28)"/>
    <path class="cls-1" d="m80.74,165.67c6.68-9.31,17.4-16,28.94-16.75,0,0-4.14,1.14-4.14,1.14-7,1.38-13.42,4.84-18.65,9.67-2.04,1.88-4.13,4.04-6.16,5.93h0Z"/>
    <path class="cls-1" d="m109.99,149.69c-.33-.43-.53-.77-.72-1.28.5.19.82.76.72,1.28h0Z"/>
    <path class="cls-1" d="m67.87,98.7c5.34,4.81,7.87,11.81,11.18,17.98,3.26,6.27,7.37,12.06,12.01,17.4-5.11-4.94-9.34-10.78-12.68-17.05-3.27-6.27-5.62-13.09-10.51-18.33h0Z"/>
    <path class="cls-1" d="m115.57,100.84c-2.34,6.48-6.11,12.32-9.67,18.17-2.2,3.65-4.62,7.37-7.94,10.16,0,0-1.91,1.74-1.91,1.74-1.31,1.12-2.68,2.16-4.06,3.18,1.27-1.16,2.57-2.28,3.79-3.48l1.82-1.82c3.16-2.92,5.47-6.47,7.67-10.17,3.63-5.82,7.43-11.53,10.31-17.78h0Z"/>
  </g>
  <g>
    <path class="cls-1" d="m67.38,209.24c7.53.02,15.12-.16,22.58,1.07,3.73.59,7.42,1.37,11.12,2.06l5.56,1c.42.08,1.06.15,1.44.4,1.59.89,1.13,3.5-.64,3.84-3.73.96-7.51.95-11.31,1.17-7.52.27-15.46.54-22.44-2.68-1.76-.72-3.48-1.55-5.09-2.55-1.14-.68-2.76-1.77-2.25-3.34.14-.46.51-.91,1.04-.97h0Zm0,.14c-.44.06-.77.45-.89.88-.81,2.67,5.59,4.28,7.48,4.98,8.99,2.96,18.42,2.22,27.72,2.11,1.88-.08,3.74-.08,5.53-.48.8-.12,1.32-.89,1.18-1.69-.1-.61-.58-1.08-1.19-1.19-5.74-1.25-11.58-1.97-17.42-2.53-7.47-.7-14.9-2.06-22.42-2.08h0Z"/>
    <path class="cls-1" d="m65.88,208.7c-2.58-2.7,3.74-8.42,5.61-10.31,7.48-7.11,16.62-12.38,25.2-18.01.86-.57,1.79-1.05,2.67-1.6l.67-.4c.79-.47,1.92-.32,2.54.38,1.86,2.02-1.06,4.12-2.15,5.74-3.99,4.78-8.41,9.18-13.12,13.24-5.6,4.5-11.39,9.43-18.4,11.5-1.01.2-2.29.33-3.03-.53,0,0,.11-.09.11-.09,3.61,2.73,17.19-9.36,20.36-11.99,5.58-4.85,10.99-10.04,15.75-15.72.68-.83-.09-2.18-1.15-2.11-.36-.04-.97.37-1.3.52-6.37,3.36-12.14,7.77-17.81,12.18-5.49,4.48-11.81,8.43-15.8,14.38-.48.85-.75,1.94-.06,2.73,0,0-.1.1-.1.1h0Z"/>
    <path class="cls-1" d="m103.78,215.77c-6.03-1.13-12.44-.45-18.53-.88-6.2-.73-12.12-2.79-17.86-5.13,5.86,1.88,11.79,3.84,17.92,4.5,6.11.4,12.48-.16,18.47,1.51h0Z"/>
    <path class="cls-1" d="m97.28,183.56c-10.93,7.87-20.99,16.83-30.83,26,9.22-9.8,19.4-18.86,30.83-26h0Z"/>
    <path class="cls-1" d="m138.08,167.62c6.09-4.43,12.1-9.06,18.85-12.47,3.35-1.73,6.79-3.28,10.19-4.9l5.07-2.48c.39-.18.94-.51,1.4-.53,1.83-.2,2.98,2.13,1.75,3.48-2.44,2.98-5.5,5.2-8.44,7.62-5.91,4.66-12.16,9.57-19.69,11.09-1.84.45-3.72.81-5.62.94-1.32.13-3.27.2-3.79-1.37-.16-.46-.12-1.03.26-1.39h0Zm.09.11c-.32.31-.35.82-.19,1.23.92,2.63,7.04.16,8.98-.4,9-2.92,16.17-9.09,23.61-14.67,1.47-1.17,2.97-2.27,4.18-3.65.58-.57.54-1.5-.05-2.07-.44-.43-1.1-.53-1.66-.25-5.37,2.38-10.51,5.25-15.55,8.25-6.44,3.85-13.24,7.14-19.32,11.56h0Z"/>
    <path class="cls-1" d="m136.29,168.49c-3.73-.55-2.33-8.87-2.05-11.56,1.41-10.22,5.25-20.04,8.44-29.8.32-.98.74-1.94,1.08-2.92l.27-.73c.32-.86,1.3-1.45,2.22-1.29,2.72.42,1.74,3.88,1.9,5.82-.13,6.22-.84,12.42-1.98,18.53-.89,4.33-4.69,22.18-9.9,21.94,0,0,.03-.14.03-.14,1.02.06,1.76-.8,2.32-1.61,3.55-6.22,4.67-13.53,6.1-20.47,1.29-7.04,2.24-14.21,2.48-21.37,0-.47.08-.89-.12-1.29-.5-.96-2.05-.9-2.46.14,0,0-.31.7-.31.7-2.88,6.6-4.63,13.65-6.31,20.64-1.49,6.93-3.96,13.96-3.36,21.09.16.96.63,1.98,1.66,2.17v.14h-.01Z"/>
    <path class="cls-1" d="m158.24,135.98c-2.51-1.19-.56-9.07-.21-11.42,1.52-7.76,4.66-15.04,7.68-22.3.8-1.85,2.52-6.44,3.44-8.19.89-1.76,3.13-2.14,4.03-.16.67,1.46.38,3.12.28,4.59-1.02,11.81-4.58,23.46-10.91,33.52-.8,1.24-1.56,2.55-2.66,3.56-.35.32-.91.65-1.39.46,0,0-.27-.07-.27-.07h0Zm.04-.13c3.25,1.58,9.4-17.51,10.32-20.36,1.75-5.57,3.02-11.3,3.78-17.1.14-1.62.85-4.03-.7-5-1.85-.6-2.62,2.27-3.29,3.6-2.43,5.36-4.25,10.98-5.99,16.59-.88,3.81-7.74,20.29-4.13,22.27h0Z"/>
    <path class="cls-1" d="m113.04,192.5c-.35-3.99,17.49-7.9,21.07-8.9,5.74-1.37,11.52-2.58,17.36-3.45,1.51-.16,3.2-.69,4.76.05,1.33.59,1.58,2.5.7,3.53-.97,1.35-2.61,1.92-3.96,2.57-5.39,2.46-11.07,4.29-16.84,5.56-5.77,1.28-11.65,1.95-17.55,2.13-1.46.02-2.97.07-4.39-.34-.61-.18-1.03-.48-1.15-1.16h0Zm0,0c.35,2.61,9.33,1.04,11.4.95,7.77-.99,15.38-3.05,22.61-6.02,1.81-.72,3.59-1.53,5.36-2.35,1.33-.68,3.68-1.47,3.65-3.02-.06-.29-.18-.5-.47-.64-1.18-.52-2.59-.06-3.94.05-1.94.25-3.88.52-5.81.82-5.14.85-32.71,4.78-32.8,10.2h0Z"/>
    <path class="cls-1" d="m113.78,192.23c4.11.07,6.21-17.7,7.3-21.44,1.23-5.74,2.4-11.53,2.9-17.39.07-1.5.79-4.35-1.11-4.75-1.82.08-2.38,2.55-3.06,4.01-2.17,5.43-3.87,11.04-5.07,16.76-.58,2.93-4.57,22.58-.96,22.81h0Zm-.03.14l-.26-.07h.01c-.57-.09-.84-.64-1-1.08-.47-1.42-.49-2.93-.58-4.4-.6-11.87,2-23.77,6.89-34.57.63-1.33,1.19-2.93,2.49-3.87,1.75-1.27,3.53.11,3.44,2.11-.04,1.95-.79,6.81-1,8.82-.92,7.81-1.74,15.69-4.21,23.21-.84,2.25-3.01,10.06-5.77,9.86h0Z"/>
    <path class="cls-1" d="m170.52,97.34c-1.06,7.38-2.69,14.7-4.99,21.82-4.71,14.24-12.21,27.35-20.13,40.02-4.01,6.32-8.39,12.44-13.36,18.1-14.9,17.1-36.48,27.24-58.4,31.84-7.38,1.44-14.92,1.47-22.38,1.03,7.44-.07,14.95-.46,22.12-2.16,42.64-10.69,61.43-31.72,81.85-68.98,7.35-12.95,12.44-27.06,15.3-41.67h0Z"/>
    <path class="cls-1" d="m172.41,150.8c-5.53,2.65-10.3,6.99-15.47,10.23-5.43,3.08-11.42,4.91-17.44,6.41,5.84-1.94,11.78-3.87,17.12-6.95,5.16-3.29,9.97-7.5,15.79-9.69h0Z"/>
    <path class="cls-1" d="m145.21,127.48c-3.38,13.04-5.39,26.36-7.1,39.7.83-13.43,2.87-26.9,7.1-39.7h0Z"/>
    <ellipse class="cls-2" cx="134.86" cy="204.09" rx="6.69" ry="9.92" transform="translate(-90.79 298.55) rotate(-79.26)"/>
    <path class="cls-1" d="m98.4,200.39c9.68-3,21.34-3.32,29.86,2.85-1.09-.7-2.24-1.26-3.43-1.74-8.35-3.45-17.76-2.96-26.44-1.11h0Z"/>
    <path class="cls-1" d="m127.95,204.06c-.05-.56-.03-.97.09-1.51.33.44.29,1.11-.09,1.51h0Z"/>
    <ellipse class="cls-2" cx="122.87" cy="212.8" rx="5.6" ry="8.3" transform="translate(-121.12 183.62) rotate(-53.18)"/>
    <path class="cls-1" d="m90.28,203.58c9.69-1.92,20.37.18,28.08,6.51,0,0-3.28-1.72-3.28-1.72-5.22-3.25-11.3-4.86-17.43-4.9-2.39-.02-4.98.11-7.37.11h0Z"/>
    <path class="cls-1" d="m118.1,210.76c.04-.47.12-.8.3-1.23.2.42.07.96-.3,1.23h0Z"/>
    <path class="cls-1" d="m121.63,153.86c.53,6.17-2,12.07-3.55,17.9-1.64,5.87-2.47,11.93-2.69,18.02-.31-6.12.47-12.28,2.06-18.2,1.63-5.87,4.18-11.55,4.18-17.73h0Z"/>
    <path class="cls-1" d="m150.38,183.3c-5.29,2.7-11.1,4.16-16.79,5.74-3.53,1-7.25,1.92-10.98,1.72,0,0-2.22-.03-2.22-.03-1.49-.07-2.96-.22-4.43-.39,5.92.22,11.79-.03,17.46-1.91,5.72-1.53,11.47-2.88,16.96-5.12h0Z"/>
  </g>
</svg>